<?xml version="1.0" encoding="UTF-8"?>
<svg id="Layer_1" data-name="Layer 1" xmlns="http://www.w3.org/2000/svg" viewBox="0 0 319.69 300">
  <defs>
    <style>
      .cls-1 {
        fill: #00aeef;
      }

      .cls-2 {
        fill: #fff;
      }

      .cls-2, .cls-3 {
        stroke: #231f20;
        stroke-miterlimit: 10;
      }

      .cls-4 {
        fill: #c7e86d;
      }

      .cls-3 {
        fill: #1d3557;
      }
    </style>
  </defs>
  <g>
    <path class="cls-1" d="M19.69,150C19.69,67.16,86.85,0,169.69,0s150,67.16,150,150-67.16,150-150,150S19.69,232.84,19.69,150"/>
    <path class="cls-4" d="M34.03,178.6c-.81.59-.7,2.29.05,4.99,1.7,5.74,4.61,12.88,6.8,18.86,3.45,9.17,6.88,19.12,13.13,26.19,5.42,6.15,11.86,12.81,18.19,17.78,4.93,3.39,4.64-.76,4.23-6.13-.23-2.39-.62-5.26-1.04-8.35-1.04-7.11-1.89-14.63-3.21-21.64-1.43-8.56-5.26-13.42-11.85-17.71-4.42-3-9.35-5.89-13.95-8.69-2.67-1.6-5.14-3.05-7.13-4.06-2.58-1.3-4.35-1.85-5.19-1.29l-.05.04Z"/>
    <path class="cls-4" d="M85.29,158.86c.83,8.69,4.52,18.29,11.23,24.15,6.5,5.18,14.62,4.52,23.41,4.67,6.85.06,16.6-.54,21.48,3.49,5.83,4.8,6.49,13.25,8.43,21.01,1.98,8.93,3.86,17.41,5.81,26.17,1.62,6.94,2.65,13.84,7.14,18.29,3.53,3.7,9.82,4.73,15.12,4.71,7.99.07,15.23-.79,21.16-5.49,4.84-3.87,8.12-9.26,11.72-14.28,6.31-8.9,12.2-17.21,14.41-27.6,3.89-19.06,10.99-19.32,22.36-32.21,8.34-10.46-7.23-15.12-14.01-19.85-20.29-13.34-25.6-28.54-53.15-27.27-10.07.02-20.44.23-29.58-4.36-4.99-2.3-9.8-5.22-15.18-6.54-6.15-1.62-12.92-1.05-19.67-.18-6.89.89-13.89,1.93-18.8,5.45-8.28,5.85-12.13,19.95-11.87,29.63v.19Z"/>
    <path class="cls-4" d="M49.69,92.49c-2.62-4.08,1.21-9.63,3.3-13.46,2.12-3.63,4.31-7.3,6.46-10.93,5.29-8.74,9.97-18.33,18.93-23.69,9.99-5.87,21.52-10.76,31.89-15.95,6.5-2.89,15.76-8.91,21.67-2.16,3.46,4,6.43,10.35,7.5,15.86,1.59,7.5-5.14,12.75-10.37,16.94-25.56,21.03-8.73-16.19-28.19-1.52-7.35,5.67-14.75,11.75-20.68,18.84-5.69,6.86-10.68,15.11-19.69,17.58-3.38,1.01-8.45,1.46-10.75-1.41l-.08-.11Z"/>
    <path class="cls-4" d="M236.63,29.32c3.01,1.15,5.54,3,8.02,5.11,8.06,6.91,22.32,19.37,31.43,27.41,6.09,4.95,10.16,10.57,12.99,17.8,5.14,12.08,11.59,27.54,16.66,39.66,2.19,5.4,4.63,10.16,4.87,15.07.35,5.36-.48,10.77-1.05,16.16-.51,4.19-.9,8.95-1.63,12.88-.75,3.64-2.05,6.2-4.98,8.01-5.08,2.83-11.46,3.41-17.06,4.64-6.19,1.23-11,.84-13.53-5.38-4.51-10.3-10.83-26.51-15.16-36.91-1.33-3.15-3.01-6.29-6.07-7.89-3.33-1.72-9.32-2.56-11.17,1.06-.84,2.98,1.15,6.22,3.19,11,2.43,5.44,5.31,11.61,7.69,17.17,3.18,7.39,2.1,8.47-3.72,5.07-6.08-3.57-12.73-7.67-18.87-11.38-5.12-3.03-10.11-6.31-13.02-10.56-2.99-4.06-5.04-9.38-9.57-11.96-6.28-4.13-15.41-.4-21.5-4.85-5.3-4.89-.47-11.41,5.52-12.78,4.4-1.29,10.3-1.9,13.32-5.49,2.16-2.43,2.43-5.84.69-8.37-4.01-5.89-12.78-4.27-17.61-.21-3.89,2.95-6.64,7.98-10.32,10.95-9.07,7.86-17.64-1.41-25.71-5.53-5.84-2.8-7.55-.14-3.39,5.18,3.45,4.53,10.32,10.51,13.26,14.93,2.42,3.58-.49,5.67-3.8,4.14-5.32-2.37-8.13-8.68-12.46-12.5-4.91-4.46-9.71-8.12-15.8-7.3-3.23.44-6.37,1.88-9.56,2.84-4.77,1.7-13.17,1.75-15.92-2.29-2.31-3.87,1.6-8.06,4.19-10.83,5.94-6.27,15.12-10.92,22.98-15.68,12.11-7.48,24.07-13.5,36.76-19.11,4.65-2.13,9.24-5.1,10.87-10.12.98-2.66,1.67-9.34-2.83-8.15-2.34.72-5.81,3.93-9.45,4.94-3.74,1.27-9.19-.07-10.96-2.38-3.82-4.83,9.23-8.59,12.36-10.52,7.04-3.1,14.38-7.35,21.53-9.11,7.41-1.85,15.02-.2,22.47.75,8.71,1.43,18.35,1.82,26.19,4.46l.14.05Z"/>
  </g>

  <g id="fly_gruppe" transform="translate(0, 0)">
    <animateMotion 
            path="M 0 0 C 120 -40, 230 -10, 270 0"
            dur="4s" 
            repeatCount="indefinite" 
            rotate="auto"
    /> 

    <path class="cls-3" d="M74.8,130.35c-6.45,1.48-14.34,2.61-22.38,3.25-.48.27-.96.54-1.44.82,3.84.89,4.04,3.59,4.04,6.9,0,4.06-.3,7.49-7.29,7.49-5.26,0-11.29-1.95-13.95-4.64-7.15,4.06-13.62,7.72-17.27,9.77-1,.54-1.85.83-3.03.9-1.76.09-6.24-.25-6.17-1.92.24-1.16,1.4-2.05,2.88-3.76,2.1-2.29,4.03-4.39,6.4-6.97,2.62-2.85,5.35-5.82,7.98-8.68-6.68-.75-12.25-2.15-15.6-4.38-.13-.02-.27-.06-.4-.12l-4.5-1.98c-2.3-1.01-2.3-4.27,0-5.28l1.83-.81c.13-.41.29-.81.49-1.19-.21-.33-.31-.8-.45-1.18-1.08-3.71-3.55-12.35-5.06-17.56-.36-1.4-.7-2.16.03-2.57h.02c.67-.3,1.8-.24,2.68-.22,1.51.07,3.11.06,4.58.39,1.07.26,1.7.78,2.55,1.75,3.23,3.81,7.49,8.63,10.27,12.09.04.06.08.12.11.17,1.71-.28,3.53-.5,5.47-.7,3.11-.27,6.6-.43,10.53-.44,9.15.03,23.14-1.16,31.58-.05,3.14.35,5.91,2.61,8.54,4.17,1.17.7,2.23,1.15,3.49,1.43,2.11.54,3.59.67,5.25,1.7,1.63,1.01,2.52,2.78,2.65,4.32v.02c.46,2.99-5.29,5.2-13.87,7.27Z"/>
    <g>
      <g>
        <path class="cls-2" d="M51.59,121.37c-.28.26-.71.28-1.07.3-.51.02-1.02.02-1.54,0-.4-.02-.86-.05-1.16-.34-.46-.54-.3-1.36-.34-2.03,0-.6-.03-1.36.36-1.73.37-.39,1.13-.35,1.73-.36.67.04,1.51-.12,2.05.36.28.31.3.77.32,1.18.01.51.01,1,0,1.5-.02.38-.05.82-.32,1.09l-.02.02Z"/>
        <path class="cls-2" d="M68.06,121.37c-.28.26-.71.28-1.07.3-.51.02-1.02.02-1.54,0-.4-.02-.86-.05-1.16-.34-.46-.54-.3-1.36-.34-2.03,0-.6-.03-1.36.36-1.73.37-.39,1.13-.35,1.73-.36.67.04,1.51-.12,2.05.36.28.31.3.77.32,1.18.01.51.01,1,0,1.5-.02.38-.05.82-.32,1.09l-.02.02Z"/>
        <path class="cls-2" d="M43.53,121.37c-.28.26-.71.28-1.07.3-.51.02-1.02.02-1.54,0-.4-.02-.86-.05-1.16-.34-.46-.54-.3-1.36-.34-2.03,0-.6-.03-1.36.36-1.73.37-.39,1.13-.35,1.73-.36.67.04,1.51-.12,2.05.36.28.31.3.77.32,1.18.01.51.01,1,0,1.5-.02.38-.05.82-.32,1.09l-.02.02Z"/>
        <path class="cls-2" d="M60.01,121.37c-.28.26-.71.28-1.07.3-.51.02-1.02.02-1.54,0-.4-.02-.86-.05-1.16-.34-.46-.54-.3-1.36-.34-2.03,0-.6-.03-1.36.36-1.73.37-.39,1.13-.35,1.73-.36.67.04,1.51-.12,2.05.36.28.31.3.77.32,1.18.01.51.01,1,0,1.5-.02.38-.05.82-.32,1.09l-.02.02Z"/>
      </g>
      <path class="cls-2" d="M87.91,121.51c-.04.25-1.02.14-2.2.17-2.38,0-5.31,0-7.79,0-1.53.02-2.23,0-2.35-1.33-.13-1.18-.08-2.84,1.4-3.03.97-.16,2.03-.11,3.01-.02,1.47.12,3,1.24,4.38,2,.66.38,1.4.81,2.03,1.17.9.52,1.48.86,1.52,1.02h0Z"/>
    </g>
  </g>
</svg>